<?xml version="1.0" standalone="no"?>
<!DOCTYPE svg PUBLIC "-//W3C//DTD SVG 20010904//EN"
 "http://www.w3.org/TR/2001/REC-SVG-20010904/DTD/svg10.dtd">
<svg version="1.0" xmlns="http://www.w3.org/2000/svg"
 width="971.000000pt" height="1280.000000pt" viewBox="0 0 971.000000 1280.000000"
 preserveAspectRatio="xMidYMid meet">
<metadata>
Created by potrace 1.15, written by Peter Selinger 2001-2017
</metadata>
<g transform="translate(0.000000,1280.000000) scale(0.100000,-0.100000)"
fill="#6fb052" stroke="none">
<path d="M4184 10975 c-790 -72 -1460 -324 -2059 -773 -206 -155 -457 -394
-602 -572 -356 -441 -601 -992 -663 -1497 -15 -122 -16 -363 -1 -440 37 -197
138 -384 295 -550 240 -255 538 -375 886 -359 352 16 635 176 831 469 95 142
139 238 224 489 191 561 449 986 701 1154 46 30 122 71 169 91 325 132 820
148 1160 37 188 -62 338 -158 487 -313 203 -211 289 -423 290 -716 1 -203 -37
-335 -148 -511 -131 -210 -275 -358 -799 -823 -551 -490 -881 -812 -1056
-1031 -287 -358 -515 -886 -584 -1350 -77 -518 -5 -882 231 -1168 163 -197
369 -320 620 -368 114 -22 347 -22 457 0 206 41 357 118 492 251 147 144 235
310 291 547 136 575 150 625 213 750 101 202 276 388 871 927 748 676 982 903
1136 1096 292 368 478 731 558 1087 92 410 85 869 -19 1274 -150 583 -520
1142 -1007 1521 -592 461 -1294 717 -2147 783 -180 13 -652 11 -827 -5z"/>
<path d="M4315 2503 c-293 -37 -533 -147 -736 -341 -141 -134 -239 -277 -305
-444 -119 -302 -110 -698 23 -1004 107 -246 328 -464 598 -590 295 -138 653
-161 965 -63 104 33 278 124 370 193 239 179 385 403 451 689 30 128 38 404
15 533 -45 260 -155 476 -338 662 -241 246 -557 375 -908 370 -58 0 -118 -3
-135 -5z"/>
</g>
</svg>
