<?xml version="1.0" standalone="no"?>
<!DOCTYPE svg PUBLIC "-//W3C//DTD SVG 20010904//EN"
 "http://www.w3.org/TR/2001/REC-SVG-20010904/DTD/svg10.dtd">
<svg version="1.0" xmlns="http://www.w3.org/2000/svg"
 width="862.000000pt" height="1280.000000pt" viewBox="0 0 862.000000 1280.000000"
 preserveAspectRatio="xMidYMid meet">
<metadata>
Created by potrace 1.15, written by Peter Selinger 2001-2017
</metadata>
<g transform="translate(0.000000,1280.000000) scale(0.100000,-0.100000)"
fill="#3abc9a" stroke="none">
<path d="M4105 12794 c-704 -39 -1320 -192 -1882 -468 -741 -364 -1341 -898
-1723 -1532 -329 -545 -500 -1100 -500 -1624 0 -341 144 -652 426 -920 272
-258 627 -380 1016 -349 307 25 548 135 758 348 175 177 285 372 405 721 160
461 311 777 505 1053 95 134 275 311 374 367 243 136 537 200 916 200 451 -1
781 -112 1064 -358 280 -244 426 -561 426 -927 0 -253 -53 -412 -223 -665
-144 -215 -268 -339 -927 -925 -557 -496 -915 -842 -1110 -1069 -349 -408
-608 -949 -695 -1450 -47 -276 -69 -695 -46 -891 40 -341 146 -579 345 -778
246 -246 587 -372 960 -354 483 23 828 244 1016 652 52 111 88 233 155 530 32
138 73 306 92 375 36 135 114 308 183 409 118 174 335 399 718 743 983 884
1336 1221 1526 1458 178 223 381 540 481 754 300 638 337 1470 99 2197 -161
495 -424 919 -809 1305 -667 670 -1581 1070 -2695 1179 -149 15 -706 27 -855
19z"/>
<path d="M3980 2905 c-340 -52 -607 -191 -851 -442 -293 -302 -427 -693 -390
-1135 20 -238 60 -388 153 -570 131 -256 353 -465 642 -604 164 -78 282 -113
470 -139 305 -42 608 8 877 143 339 171 584 439 700 767 111 317 116 701 12
1020 -68 210 -196 409 -369 575 -226 217 -468 336 -789 386 -110 17 -340 16
-455 -1z"/>
</g>
</svg>
