<?xml version="1.0" standalone="no"?>
<!DOCTYPE svg PUBLIC "-//W3C//DTD SVG 20010904//EN"
 "http://www.w3.org/TR/2001/REC-SVG-20010904/DTD/svg10.dtd">
<svg version="1.0" xmlns="http://www.w3.org/2000/svg"
 width="1280.000000pt" height="1262.000000pt" viewBox="0 0 1280.000000 1262.000000"
 preserveAspectRatio="xMidYMid meet">
<metadata>
Created by potrace 1.15, written by Peter Selinger 2001-2017
</metadata>
<g transform="translate(0.000000,1262.000000) scale(0.100000,-0.100000)"
fill="#3abc9a" stroke="none">
<path d="M11752 12277 l-412 -342 -311 -385 -311 -385 -2107 -2108 c-1158
-1159 -2111 -2106 -2117 -2105 -18 5 -2540 2450 -2647 2566 -227 249 -380 505
-483 811 -39 118 -83 286 -144 561 -97 429 -182 648 -341 880 -80 117 -215
267 -291 325 -142 108 -382 195 -651 237 -118 18 -185 22 -397 22 -221 0 -272
-3 -383 -23 -189 -33 -298 -76 -312 -123 -16 -48 160 -174 625 -448 315 -185
337 -200 357 -248 50 -120 64 -469 25 -638 -32 -140 -70 -215 -150 -293 -130
-128 -290 -214 -467 -253 l-93 -20 -43 23 c-59 29 -161 98 -357 242 -334 242
-486 331 -558 325 -54 -4 -67 -31 -60 -131 19 -277 313 -766 693 -1152 126
-128 225 -192 403 -258 183 -68 379 -108 832 -167 440 -57 652 -107 854 -200
183 -84 152 -56 1554 -1456 l1315 -1314 -130 -130 -130 -130 -150 133 c-140
124 -156 135 -230 161 -44 15 -144 51 -223 79 l-144 50 -200 -200 -201 -201
11 -60 c19 -110 -12 -237 -89 -369 -39 -65 -207 -239 -319 -330 -229 -185
-491 -313 -639 -313 l-45 0 -1609 -1608 c-1152 -1150 -1614 -1618 -1627 -1647
-83 -183 -56 -491 62 -730 120 -240 354 -510 589 -677 104 -75 278 -166 379
-198 200 -64 434 -64 575 0 29 13 501 480 1646 1626 l1607 1609 6 55 c14 132
77 287 181 446 87 133 157 218 294 354 137 137 222 192 347 224 71 18 180 21
220 5 27 -10 34 -4 230 193 l202 203 -79 224 -79 223 -103 115 c-56 64 -115
131 -131 150 l-29 35 129 129 129 128 2023 -2022 c1112 -1112 2041 -2046 2063
-2076 96 -130 148 -236 286 -586 118 -299 172 -413 264 -550 156 -233 370
-402 608 -479 120 -39 188 -50 311 -49 246 1 469 97 670 289 361 345 448 810
235 1251 -126 259 -322 419 -695 566 -63 25 -200 75 -304 112 -316 112 -473
186 -600 283 -47 36 -3620 3487 -4036 3898 l-95 94 2080 2081 2080 2080 422
343 423 343 335 409 335 409 -227 227 c-125 126 -230 228 -233 227 -3 0 -191
-154 -418 -342z m-76 -10533 c41 -19 81 -34 89 -34 7 0 52 18 100 40 48 22 91
40 95 40 5 0 38 -40 73 -89 l66 -88 98 -7 c55 -4 104 -10 110 -14 6 -4 14 -47
17 -97 4 -49 9 -97 12 -107 3 -9 43 -44 89 -78 47 -34 85 -65 85 -69 0 -5 -18
-49 -40 -99 -22 -49 -40 -94 -40 -100 0 -5 18 -49 40 -97 22 -48 40 -92 40
-98 -1 -7 -39 -39 -85 -71 -47 -32 -85 -62 -86 -65 0 -3 -6 -53 -12 -111 l-12
-105 -109 -12 c-60 -6 -112 -15 -116 -20 -4 -4 -32 -43 -64 -85 -31 -43 -61
-78 -66 -78 -6 0 -51 18 -100 41 -101 45 -93 45 -215 -11 l-82 -38 -63 89
c-69 98 -53 90 -215 107 l-70 7 -12 105 c-6 58 -12 107 -12 110 -1 3 -39 33
-86 65 -46 33 -84 66 -85 72 0 7 18 52 40 99 22 48 40 91 40 97 0 5 -18 50
-40 100 -22 50 -39 96 -36 103 2 6 40 37 84 68 89 62 87 58 98 191 4 44 11 83
17 87 6 4 55 10 110 14 l98 7 41 56 c90 123 89 122 110 115 11 -3 53 -21 94
-40z"/>
</g>
</svg>
