<?xml version="1.0" standalone="no"?>
<!DOCTYPE svg PUBLIC "-//W3C//DTD SVG 20010904//EN"
 "http://www.w3.org/TR/2001/REC-SVG-20010904/DTD/svg10.dtd">
<svg version="1.0" xmlns="http://www.w3.org/2000/svg"
 width="1195.000000pt" height="1280.000000pt" viewBox="0 0 1195.000000 1280.000000"
 preserveAspectRatio="xMidYMid meet">
<metadata>
Created by potrace 1.15, written by Peter Selinger 2001-2017
</metadata>
<g transform="translate(0.000000,1280.000000) scale(0.100000,-0.100000)"
fill="#3abc9a" stroke="none">
<path d="M750 12793 c-201 -33 -405 -184 -504 -372 -103 -197 -103 -445 0
-642 105 -199 315 -347 532 -374 l52 -7 0 -3727 0 -3728 23 -34 c12 -19 38
-42 57 -51 33 -17 166 -18 2358 -18 l2322 0 0 -153 0 -153 -30 -17 c-50 -30
-149 -127 -195 -191 -155 -220 -191 -470 -105 -728 25 -74 28 -94 18 -104 -14
-12 -2377 -1757 -2605 -1923 -72 -53 -132 -100 -132 -104 -1 -5 308 -5 686 -1
l687 7 536 477 c294 263 706 630 916 817 l381 341 54 -15 c83 -24 289 -28 372
-9 38 9 72 16 76 16 5 0 423 -366 930 -813 l922 -814 686 -7 c376 -4 687 -5
689 -3 4 4 -450 341 -2198 1631 -414 305 -556 415 -551 426 3 8 20 53 37 100
29 80 30 93 31 235 0 130 -3 160 -23 225 -58 184 -165 331 -319 439 l-33 22 0
150 0 149 2338 2 2337 3 34 24 c18 13 40 39 47 57 12 28 14 604 14 3752 l0
3719 60 7 c276 31 523 250 596 526 22 87 22 253 0 340 -61 233 -232 413 -476
502 l-65 23 -5265 1 c-2896 1 -5276 -1 -5290 -3z"/>
</g>
</svg>
